<?xml version="1.0" encoding="UTF-8" standalone="no"?>
<!-- Generator: Adobe Illustrator 24.0.0, SVG Export Plug-In . SVG Version: 6.00 Build 0)  -->

<svg
   xmlns:dc="http://purl.org/dc/elements/1.1/"
   xmlns:cc="http://creativecommons.org/ns#"
   xmlns:rdf="http://www.w3.org/1999/02/22-rdf-syntax-ns#"
   xmlns:svg="http://www.w3.org/2000/svg"
   xmlns="http://www.w3.org/2000/svg"
   xmlns:sodipodi="http://sodipodi.sourceforge.net/DTD/sodipodi-0.dtd"
   xmlns:inkscape="http://www.inkscape.org/namespaces/inkscape"
   version="1.1"
   id="Layer_1"
   x="0px"
   y="0px"
   viewBox="0 0 256 256"
   xml:space="preserve"
   sodipodi:docname="chain_token.svg"
   width="256"
   height="256"
   inkscape:version="0.92.5 (2060ec1f9f, 2020-04-08)"
   inkscape:export-filename="/home/omur/Desktop/avalanche-logo.png"
   inkscape:export-xdpi="96"
   inkscape:export-ydpi="96"><metadata
   id="metadata881"><rdf:RDF><cc:Work
       rdf:about=""><dc:format>image/svg+xml</dc:format><dc:type
         rdf:resource="http://purl.org/dc/dcmitype/StillImage" /><dc:title /></cc:Work></rdf:RDF></metadata><defs
   id="defs879" /><sodipodi:namedview
   pagecolor="#ffffff"
   bordercolor="#666666"
   borderopacity="1"
   objecttolerance="10"
   gridtolerance="10"
   guidetolerance="10"
   inkscape:pageopacity="0"
   inkscape:pageshadow="2"
   inkscape:window-width="1860"
   inkscape:window-height="1016"
   id="namedview877"
   showgrid="false"
   inkscape:zoom="3.2992126"
   inkscape:cx="127"
   inkscape:cy="114.87589"
   inkscape:window-x="0"
   inkscape:window-y="27"
   inkscape:window-maximized="1"
   inkscape:current-layer="Layer_1" />
<style
   type="text/css"
   id="style868">
	.st0{fill-rule:evenodd;clip-rule:evenodd;fill:#E84142;}
	.st1{fill:#FFFFFF;}
</style>
<g
   id="g874"
   transform="matrix(0.94488189,0,0,0.94488189,8,8)">
	<circle
   class="st0"
   cx="127"
   cy="127"
   r="127"
   id="circle870"
   style="clip-rule:evenodd;fill:#e84142;fill-rule:evenodd" />
	<path
   class="st1"
   d="m 171.8,130.3 c 4.4,-7.6 11.5,-7.6 15.9,0 l 27.4,48.1 c 4.4,7.6 0.8,13.8 -8,13.8 h -55.2 c -8.7,0 -12.3,-6.2 -8,-13.8 z m -53,-92.6 c 4.4,-7.6 11.4,-7.6 15.8,0 l 6.1,11 14.4,25.3 c 3.5,7.2 3.5,15.7 0,22.9 l -48.3,83.7 c -4.4,6.8 -11.7,11.1 -19.8,11.6 H 46.9 c -8.8,0 -12.4,-6.1 -8,-13.8 z"
   id="path872"
   inkscape:connector-curvature="0"
   style="fill:#ffffff" />
</g>
</svg>